<svg width="280.000000" height="70.000000" viewBox="0 0 280 70" fill="none" xmlns="http://www.w3.org/2000/svg" xmlns:xlink="http://www.w3.org/1999/xlink">
	<desc>
			Created with Pixso.
	</desc>
	<defs/>
	<path id="Rectangle 17" d="M224.58 0L232.75 0L232.75 1L224.58 1L224.58 0ZM208.25 0L216.41 0L216.41 1L208.25 1L208.25 0ZM191.91 0L200.08 0L200.08 1L191.91 1L191.91 0ZM175.58 0L183.75 0L183.75 1L175.58 1L175.58 0ZM159.25 0L167.41 0L167.41 1L159.25 1L159.25 0ZM142.91 0L151.08 0L151.08 1L142.91 1L142.91 0ZM126.58 0L134.75 0L134.75 1L126.58 1L126.58 0ZM110.25 0L118.41 0L118.41 1L110.25 1L110.25 0ZM93.91 0L102.08 0L102.08 1L93.91 1L93.91 0ZM77.58 0L85.75 0L85.75 1L77.58 1L77.58 0ZM61.25 0L69.41 0L69.41 1L61.25 1L61.25 0ZM44.91 0L53.08 0L53.08 1L44.91 1L44.91 0ZM28.58 0L36.75 0L36.75 1L28.58 1L28.58 0ZM12.25 0L20.41 0L20.41 1L12.25 1L12.25 0ZM0 21.87L0 13.12L1 13.12L1 21.87L0 21.87ZM0 39.37L0 30.62L1 30.62L1 39.37L0 39.37ZM0 56.87L0 48.12L1 48.12L1 56.87L0 56.87ZM20.41 70L12.25 70L12.25 69L20.41 69L20.41 70ZM36.75 70L28.58 70L28.58 69L36.75 69L36.75 70ZM53.08 70L44.91 70L44.91 69L53.08 69L53.08 70ZM69.41 70L61.25 70L61.25 69L69.41 69L69.41 70ZM85.75 70L77.58 70L77.58 69L85.75 69L85.75 70ZM102.08 70L93.91 70L93.91 69L102.08 69L102.08 70ZM118.41 70L110.25 70L110.25 69L118.41 69L118.41 70ZM134.75 70L126.58 70L126.58 69L134.75 69L134.75 70ZM151.08 70L142.91 70L142.91 69L151.08 69L151.08 70ZM167.41 70L159.25 70L159.25 69L167.41 69L167.41 70ZM183.75 70L175.58 70L175.58 69L183.75 69L183.75 70ZM200.08 70L191.91 70L191.91 69L200.08 69L200.08 70ZM216.41 70L208.25 70L208.25 69L216.41 69L216.41 70ZM232.75 70L224.58 70L224.58 69L232.75 69L232.75 70ZM249.6 69.7C248.09 69.89 246.55 70 245 70L240.91 70L240.91 69L245 69Q247.09 69 249.16 68.74Q249.31 68.72 249.46 68.7L249.6 69.7ZM266.31 62.76C263.9 64.61 261.24 66.16 258.4 67.34L258.01 66.41Q259.84 65.66 261.56 64.7Q263.72 63.49 265.7 61.97L266.31 62.76ZM277.34 48.4C276.16 51.24 274.61 53.9 272.76 56.3L271.97 55.7Q273.49 53.72 274.69 51.57Q275.65 49.85 276.42 48.01L277.34 48.4ZM279.7 30.4C279.89 31.9 280 33.44 280 35C280 36.55 279.89 38.09 279.7 39.59L278.7 39.46Q278.73 39.31 278.74 39.15Q279 37.09 279 35Q279 32.9 278.74 30.84Q278.73 30.68 278.7 30.53L279.7 30.4ZM272.76 13.69C274.61 16.09 276.16 18.75 277.34 21.59L276.42 21.98Q275.65 20.14 274.69 18.42Q273.49 16.27 271.97 14.29L272.76 13.69ZM258.4 2.65C261.24 3.83 263.9 5.38 266.31 7.23L265.7 8.02Q263.72 6.5 261.56 5.29Q259.84 4.33 258.01 3.58L258.4 2.65ZM249.6 0.29L249.46 1.29Q249.31 1.27 249.15 1.25Q247.09 1 245 1L240.91 1L240.91 0L245 0C246.55 0 248.09 0.1 249.6 0.29ZM4.08 70L0 70L0 65.62L1 65.62L1 69L4.08 69L4.08 70ZM0 4.37L0 0L1 0L4.08 0L4.08 1L1 1L1 4.37L0 4.37Z" fill="#9C9C9C" fill-opacity="1.000000" fill-rule="evenodd"/>
</svg>
